<mxfile host="app.diagrams.net" agent="Mozilla/5.0 (Macintosh; Intel Mac OS X 10_15_7) AppleWebKit/537.36 (KHTML, like Gecko) Chrome/131.0.0.0 Safari/537.36" version="25.0.3">
  <diagram name="第 1 页" id="_7tyVe4Tk9JNYOjEVAzg">
    <mxGraphModel dx="2074" dy="1045" grid="1" gridSize="10" guides="1" tooltips="1" connect="1" arrows="1" fold="1" page="1" pageScale="1" pageWidth="827" pageHeight="1169" math="0" shadow="0">
      <root>
        <mxCell id="0" />
        <mxCell id="1" parent="0" />
        <mxCell id="IEyIXOlOGissW53sb8n7-5" value="" style="rounded=0;whiteSpace=wrap;html=1;sketch=1;hachureGap=4;jiggle=2;curveFitting=1;fontFamily=Architects Daughter;fontSource=https%3A%2F%2Ffonts.googleapis.com%2Fcss%3Ffamily%3DArchitects%2BDaughter;" vertex="1" parent="1">
          <mxGeometry x="80" y="80" width="680" height="1000" as="geometry" />
        </mxCell>
        <mxCell id="IEyIXOlOGissW53sb8n7-6" value="传统网站架构" style="text;html=1;align=center;verticalAlign=middle;resizable=0;points=[];autosize=1;strokeColor=none;fillColor=none;fontFamily=Architects Daughter;fontSource=https%3A%2F%2Ffonts.googleapis.com%2Fcss%3Ffamily%3DArchitects%2BDaughter;" vertex="1" parent="1">
          <mxGeometry x="364" y="28" width="100" height="30" as="geometry" />
        </mxCell>
        <mxCell id="IEyIXOlOGissW53sb8n7-7" value="" style="points=[[0.35,0,0],[0.98,0.51,0],[1,0.71,0],[0.67,1,0],[0,0.795,0],[0,0.65,0]];verticalLabelPosition=bottom;sketch=0;html=1;verticalAlign=top;aspect=fixed;align=center;pointerEvents=1;shape=mxgraph.cisco19.user;fillColor=#005073;strokeColor=none;hachureGap=4;jiggle=2;curveFitting=1;fontFamily=Architects Daughter;fontSource=https%3A%2F%2Ffonts.googleapis.com%2Fcss%3Ffamily%3DArchitects%2BDaughter;" vertex="1" parent="1">
          <mxGeometry x="140" y="130" width="60" height="60" as="geometry" />
        </mxCell>
        <mxCell id="IEyIXOlOGissW53sb8n7-8" value="" style="points=[];aspect=fixed;html=1;align=center;shadow=0;dashed=0;fillColor=#FF6A00;strokeColor=none;shape=mxgraph.alibaba_cloud.dns_privatezone_02;hachureGap=4;fontFamily=Architects Daughter;fontSource=https%3A%2F%2Ffonts.googleapis.com%2Fcss%3Ffamily%3DArchitects%2BDaughter;" vertex="1" parent="1">
          <mxGeometry x="300" y="130" width="57.24" height="60" as="geometry" />
        </mxCell>
        <mxCell id="IEyIXOlOGissW53sb8n7-9" value="" style="image;aspect=fixed;html=1;points=[];align=center;fontSize=12;image=img/lib/azure2/networking/Azure_Firewall_Manager.svg;hachureGap=4;fontFamily=Architects Daughter;fontSource=https%3A%2F%2Ffonts.googleapis.com%2Fcss%3Ffamily%3DArchitects%2BDaughter;" vertex="1" parent="1">
          <mxGeometry x="470" y="140" width="70" height="60" as="geometry" />
        </mxCell>
        <mxCell id="IEyIXOlOGissW53sb8n7-10" style="edgeStyle=orthogonalEdgeStyle;rounded=0;hachureGap=4;orthogonalLoop=1;jettySize=auto;html=1;exitX=0.98;exitY=0.51;exitDx=0;exitDy=0;exitPerimeter=0;fontFamily=Architects Daughter;fontSource=https%3A%2F%2Ffonts.googleapis.com%2Fcss%3Ffamily%3DArchitects%2BDaughter;flowAnimation=1;entryX=-0.035;entryY=0.517;entryDx=0;entryDy=0;entryPerimeter=0;" edge="1" parent="1" source="IEyIXOlOGissW53sb8n7-7" target="IEyIXOlOGissW53sb8n7-8">
          <mxGeometry relative="1" as="geometry">
            <mxPoint x="290" y="162" as="targetPoint" />
          </mxGeometry>
        </mxCell>
        <mxCell id="IEyIXOlOGissW53sb8n7-12" style="edgeStyle=orthogonalEdgeStyle;rounded=0;hachureGap=4;orthogonalLoop=1;jettySize=auto;html=1;exitX=0.978;exitY=0.517;exitDx=0;exitDy=0;exitPerimeter=0;fontFamily=Architects Daughter;fontSource=https%3A%2F%2Ffonts.googleapis.com%2Fcss%3Ffamily%3DArchitects%2BDaughter;flowAnimation=1;entryX=-0.014;entryY=0.35;entryDx=0;entryDy=0;entryPerimeter=0;" edge="1" parent="1" source="IEyIXOlOGissW53sb8n7-8" target="IEyIXOlOGissW53sb8n7-9">
          <mxGeometry relative="1" as="geometry">
            <mxPoint x="320" y="232" as="sourcePoint" />
            <mxPoint x="418" y="230" as="targetPoint" />
          </mxGeometry>
        </mxCell>
        <mxCell id="IEyIXOlOGissW53sb8n7-13" value="" style="image;html=1;image=img/lib/clip_art/networking/Wireless_Router_128x128.png;sketch=1;hachureGap=4;jiggle=2;curveFitting=1;fontFamily=Architects Daughter;fontSource=https%3A%2F%2Ffonts.googleapis.com%2Fcss%3Ffamily%3DArchitects%2BDaughter;" vertex="1" parent="1">
          <mxGeometry x="392.75" y="120" width="41.5" height="40" as="geometry" />
        </mxCell>
        <mxCell id="IEyIXOlOGissW53sb8n7-14" value="路由器" style="text;html=1;align=center;verticalAlign=middle;resizable=0;points=[];autosize=1;strokeColor=none;fillColor=none;fontFamily=Architects Daughter;fontSource=https%3A%2F%2Ffonts.googleapis.com%2Fcss%3Ffamily%3DArchitects%2BDaughter;" vertex="1" parent="1">
          <mxGeometry x="384" y="160" width="60" height="30" as="geometry" />
        </mxCell>
        <mxCell id="IEyIXOlOGissW53sb8n7-16" value="用户访问" style="text;html=1;align=center;verticalAlign=middle;resizable=0;points=[];autosize=1;strokeColor=none;fillColor=none;fontFamily=Architects Daughter;fontSource=https%3A%2F%2Ffonts.googleapis.com%2Fcss%3Ffamily%3DArchitects%2BDaughter;" vertex="1" parent="1">
          <mxGeometry x="130" y="190" width="70" height="30" as="geometry" />
        </mxCell>
        <mxCell id="IEyIXOlOGissW53sb8n7-17" value="域名服务器" style="text;html=1;align=center;verticalAlign=middle;resizable=0;points=[];autosize=1;strokeColor=none;fillColor=none;fontFamily=Architects Daughter;fontSource=https%3A%2F%2Ffonts.googleapis.com%2Fcss%3Ffamily%3DArchitects%2BDaughter;" vertex="1" parent="1">
          <mxGeometry x="288.62" y="190" width="80" height="30" as="geometry" />
        </mxCell>
        <mxCell id="IEyIXOlOGissW53sb8n7-18" value="防火墙" style="text;html=1;align=center;verticalAlign=middle;resizable=0;points=[];autosize=1;strokeColor=none;fillColor=none;fontFamily=Architects Daughter;fontSource=https%3A%2F%2Ffonts.googleapis.com%2Fcss%3Ffamily%3DArchitects%2BDaughter;" vertex="1" parent="1">
          <mxGeometry x="464" y="190" width="60" height="30" as="geometry" />
        </mxCell>
        <mxCell id="IEyIXOlOGissW53sb8n7-19" value="" style="rounded=1;whiteSpace=wrap;html=1;hachureGap=4;fontFamily=Architects Daughter;fontSource=https%3A%2F%2Ffonts.googleapis.com%2Fcss%3Ffamily%3DArchitects%2BDaughter;dashed=1;fillColor=#d0cee2;strokeColor=#56517e;" vertex="1" parent="1">
          <mxGeometry x="328.5" y="270" width="331" height="130" as="geometry" />
        </mxCell>
        <mxCell id="IEyIXOlOGissW53sb8n7-20" value="" style="rounded=1;whiteSpace=wrap;html=1;hachureGap=4;fontFamily=Architects Daughter;fontSource=https%3A%2F%2Ffonts.googleapis.com%2Fcss%3Ffamily%3DArchitects%2BDaughter;" vertex="1" parent="1">
          <mxGeometry x="350" y="280" width="100" height="90" as="geometry" />
        </mxCell>
        <mxCell id="IEyIXOlOGissW53sb8n7-21" value="" style="rounded=1;whiteSpace=wrap;html=1;hachureGap=4;fontFamily=Architects Daughter;fontSource=https%3A%2F%2Ffonts.googleapis.com%2Fcss%3Ffamily%3DArchitects%2BDaughter;" vertex="1" parent="1">
          <mxGeometry x="540" y="280" width="100" height="90" as="geometry" />
        </mxCell>
        <mxCell id="IEyIXOlOGissW53sb8n7-22" value="" style="points=[];aspect=fixed;html=1;align=center;shadow=0;dashed=0;fillColor=#0050ef;strokeColor=#001DBC;shape=mxgraph.alibaba_cloud.alb_application_load_balancer_01;hachureGap=4;fontFamily=Architects Daughter;fontSource=https%3A%2F%2Ffonts.googleapis.com%2Fcss%3Ffamily%3DArchitects%2BDaughter;fontColor=#ffffff;" vertex="1" parent="1">
          <mxGeometry x="557.51" y="297.45" width="64.97" height="55.1" as="geometry" />
        </mxCell>
        <mxCell id="IEyIXOlOGissW53sb8n7-23" value="" style="points=[];aspect=fixed;html=1;align=center;shadow=0;dashed=0;fillColor=#0050ef;strokeColor=#001DBC;shape=mxgraph.alibaba_cloud.alb_application_load_balancer_01;hachureGap=4;fontFamily=Architects Daughter;fontSource=https%3A%2F%2Ffonts.googleapis.com%2Fcss%3Ffamily%3DArchitects%2BDaughter;fontColor=#ffffff;" vertex="1" parent="1">
          <mxGeometry x="368.89" y="297.45" width="64.97" height="55.1" as="geometry" />
        </mxCell>
        <mxCell id="IEyIXOlOGissW53sb8n7-24" value="负载均衡" style="text;html=1;align=center;verticalAlign=middle;resizable=0;points=[];autosize=1;strokeColor=none;fillColor=none;fontFamily=Architects Daughter;fontSource=https%3A%2F%2Ffonts.googleapis.com%2Fcss%3Ffamily%3DArchitects%2BDaughter;fontStyle=0" vertex="1" parent="1">
          <mxGeometry x="365" y="370" width="70" height="30" as="geometry" />
        </mxCell>
        <mxCell id="IEyIXOlOGissW53sb8n7-25" value="负载均衡" style="text;html=1;align=center;verticalAlign=middle;resizable=0;points=[];autosize=1;strokeColor=none;fillColor=none;fontFamily=Architects Daughter;fontSource=https%3A%2F%2Ffonts.googleapis.com%2Fcss%3Ffamily%3DArchitects%2BDaughter;fontStyle=0" vertex="1" parent="1">
          <mxGeometry x="557.51" y="370" width="70" height="30" as="geometry" />
        </mxCell>
        <mxCell id="IEyIXOlOGissW53sb8n7-26" value="" style="endArrow=classic;startArrow=classic;html=1;rounded=0;hachureGap=4;fontFamily=Architects Daughter;fontSource=https%3A%2F%2Ffonts.googleapis.com%2Fcss%3Ffamily%3DArchitects%2BDaughter;entryX=0;entryY=0.5;entryDx=0;entryDy=0;exitX=1;exitY=0.5;exitDx=0;exitDy=0;" edge="1" parent="1" source="IEyIXOlOGissW53sb8n7-20" target="IEyIXOlOGissW53sb8n7-21">
          <mxGeometry width="50" height="50" relative="1" as="geometry">
            <mxPoint x="464" y="370" as="sourcePoint" />
            <mxPoint x="514" y="320" as="targetPoint" />
          </mxGeometry>
        </mxCell>
        <mxCell id="IEyIXOlOGissW53sb8n7-28" value="负载均衡心跳" style="text;html=1;align=center;verticalAlign=middle;resizable=0;points=[];autosize=1;strokeColor=none;fillColor=none;fontFamily=Architects Daughter;fontSource=https%3A%2F%2Ffonts.googleapis.com%2Fcss%3Ffamily%3DArchitects%2BDaughter;fontStyle=0" vertex="1" parent="1">
          <mxGeometry x="450" y="297.45" width="100" height="30" as="geometry" />
        </mxCell>
        <mxCell id="IEyIXOlOGissW53sb8n7-29" value="&lt;div&gt;&lt;font&gt;Nginx&lt;/font&gt;&lt;/div&gt;&lt;font&gt;负载均衡调度器&lt;/font&gt;" style="text;html=1;align=center;verticalAlign=middle;resizable=0;points=[];autosize=1;strokeColor=none;fillColor=none;fontFamily=Helvetica;fontStyle=1" vertex="1" parent="1">
          <mxGeometry x="210" y="315" width="110" height="40" as="geometry" />
        </mxCell>
        <mxCell id="IEyIXOlOGissW53sb8n7-30" value="" style="rounded=1;whiteSpace=wrap;html=1;hachureGap=4;fontFamily=Architects Daughter;fontSource=https%3A%2F%2Ffonts.googleapis.com%2Fcss%3Ffamily%3DArchitects%2BDaughter;dashed=1;fillColor=#fad7ac;strokeColor=#b46504;" vertex="1" parent="1">
          <mxGeometry x="240" y="470" width="481" height="130" as="geometry" />
        </mxCell>
        <mxCell id="IEyIXOlOGissW53sb8n7-31" value="" style="rounded=1;whiteSpace=wrap;html=1;hachureGap=4;fontFamily=Architects Daughter;fontSource=https%3A%2F%2Ffonts.googleapis.com%2Fcss%3Ffamily%3DArchitects%2BDaughter;" vertex="1" parent="1">
          <mxGeometry x="299" y="475" width="100" height="90" as="geometry" />
        </mxCell>
        <mxCell id="IEyIXOlOGissW53sb8n7-32" value="&lt;font face=&quot;Helvetica&quot;&gt;Web服务器&lt;br&gt;Nginx/Tomcat&lt;/font&gt;" style="text;html=1;align=center;verticalAlign=middle;resizable=0;points=[];autosize=1;strokeColor=none;fillColor=none;fontFamily=Architects Daughter;fontSource=https%3A%2F%2Ffonts.googleapis.com%2Fcss%3Ffamily%3DArchitects%2BDaughter;" vertex="1" parent="1">
          <mxGeometry x="299" y="565" width="100" height="40" as="geometry" />
        </mxCell>
        <mxCell id="IEyIXOlOGissW53sb8n7-35" value="" style="verticalLabelPosition=bottom;html=1;verticalAlign=top;align=center;strokeColor=none;fillColor=#00BEF2;shape=mxgraph.azure.server_rack;hachureGap=4;fontFamily=Architects Daughter;fontSource=https%3A%2F%2Ffonts.googleapis.com%2Fcss%3Ffamily%3DArchitects%2BDaughter;" vertex="1" parent="1">
          <mxGeometry x="324" y="495" width="56" height="55" as="geometry" />
        </mxCell>
        <mxCell id="IEyIXOlOGissW53sb8n7-36" value="" style="rounded=1;whiteSpace=wrap;html=1;hachureGap=4;fontFamily=Architects Daughter;fontSource=https%3A%2F%2Ffonts.googleapis.com%2Fcss%3Ffamily%3DArchitects%2BDaughter;" vertex="1" parent="1">
          <mxGeometry x="570" y="475" width="100" height="90" as="geometry" />
        </mxCell>
        <mxCell id="IEyIXOlOGissW53sb8n7-37" value="&lt;font face=&quot;Helvetica&quot;&gt;Web服务器&lt;br&gt;Nginx/Tomcat&lt;/font&gt;" style="text;html=1;align=center;verticalAlign=middle;resizable=0;points=[];autosize=1;strokeColor=none;fillColor=none;fontFamily=Architects Daughter;fontSource=https%3A%2F%2Ffonts.googleapis.com%2Fcss%3Ffamily%3DArchitects%2BDaughter;" vertex="1" parent="1">
          <mxGeometry x="570" y="565" width="100" height="40" as="geometry" />
        </mxCell>
        <mxCell id="IEyIXOlOGissW53sb8n7-38" value="" style="verticalLabelPosition=bottom;html=1;verticalAlign=top;align=center;strokeColor=none;fillColor=#00BEF2;shape=mxgraph.azure.server_rack;hachureGap=4;fontFamily=Architects Daughter;fontSource=https%3A%2F%2Ffonts.googleapis.com%2Fcss%3Ffamily%3DArchitects%2BDaughter;" vertex="1" parent="1">
          <mxGeometry x="595" y="495" width="56" height="55" as="geometry" />
        </mxCell>
        <mxCell id="IEyIXOlOGissW53sb8n7-39" value="" style="rounded=1;whiteSpace=wrap;html=1;hachureGap=4;fontFamily=Architects Daughter;fontSource=https%3A%2F%2Ffonts.googleapis.com%2Fcss%3Ffamily%3DArchitects%2BDaughter;" vertex="1" parent="1">
          <mxGeometry x="440" y="475" width="100" height="90" as="geometry" />
        </mxCell>
        <mxCell id="IEyIXOlOGissW53sb8n7-40" value="&lt;font face=&quot;Helvetica&quot;&gt;Web服务器&lt;br&gt;Nginx/Tomcat&lt;/font&gt;" style="text;html=1;align=center;verticalAlign=middle;resizable=0;points=[];autosize=1;strokeColor=none;fillColor=none;fontFamily=Architects Daughter;fontSource=https%3A%2F%2Ffonts.googleapis.com%2Fcss%3Ffamily%3DArchitects%2BDaughter;" vertex="1" parent="1">
          <mxGeometry x="440" y="565" width="100" height="40" as="geometry" />
        </mxCell>
        <mxCell id="IEyIXOlOGissW53sb8n7-41" value="" style="verticalLabelPosition=bottom;html=1;verticalAlign=top;align=center;strokeColor=none;fillColor=#00BEF2;shape=mxgraph.azure.server_rack;hachureGap=4;fontFamily=Architects Daughter;fontSource=https%3A%2F%2Ffonts.googleapis.com%2Fcss%3Ffamily%3DArchitects%2BDaughter;" vertex="1" parent="1">
          <mxGeometry x="465" y="495" width="56" height="55" as="geometry" />
        </mxCell>
        <mxCell id="IEyIXOlOGissW53sb8n7-42" value="" style="rounded=1;whiteSpace=wrap;html=1;hachureGap=4;fontFamily=Architects Daughter;fontSource=https%3A%2F%2Ffonts.googleapis.com%2Fcss%3Ffamily%3DArchitects%2BDaughter;dashed=1;fillColor=#f8cecc;strokeColor=#b85450;" vertex="1" parent="1">
          <mxGeometry x="158.95" y="660" width="212.11" height="160" as="geometry" />
        </mxCell>
        <mxCell id="IEyIXOlOGissW53sb8n7-43" value="" style="rounded=1;whiteSpace=wrap;html=1;hachureGap=4;fontFamily=Architects Daughter;fontSource=https%3A%2F%2Ffonts.googleapis.com%2Fcss%3Ffamily%3DArchitects%2BDaughter;dashed=1;fillColor=#ffe6cc;strokeColor=#d79b00;" vertex="1" parent="1">
          <mxGeometry x="105.06" y="860" width="629.87" height="190" as="geometry" />
        </mxCell>
        <mxCell id="IEyIXOlOGissW53sb8n7-44" value="&lt;font style=&quot;font-size: 18px;&quot; face=&quot;Helvetica&quot;&gt;&lt;b&gt;运维人员工作架构&lt;/b&gt;&lt;/font&gt;" style="text;html=1;align=center;verticalAlign=middle;resizable=0;points=[];autosize=1;strokeColor=none;fillColor=none;fontFamily=Architects Daughter;fontSource=https%3A%2F%2Ffonts.googleapis.com%2Fcss%3Ffamily%3DArchitects%2BDaughter;" vertex="1" parent="1">
          <mxGeometry x="105" y="865" width="170" height="40" as="geometry" />
        </mxCell>
        <mxCell id="IEyIXOlOGissW53sb8n7-51" style="edgeStyle=orthogonalEdgeStyle;rounded=0;hachureGap=4;orthogonalLoop=1;jettySize=auto;html=1;exitX=0.96;exitY=0.5;exitDx=0;exitDy=0;exitPerimeter=0;fontFamily=Architects Daughter;fontSource=https%3A%2F%2Ffonts.googleapis.com%2Fcss%3Ffamily%3DArchitects%2BDaughter;flowAnimation=1;" edge="1" parent="1" source="IEyIXOlOGissW53sb8n7-45" target="IEyIXOlOGissW53sb8n7-47">
          <mxGeometry relative="1" as="geometry" />
        </mxCell>
        <mxCell id="IEyIXOlOGissW53sb8n7-45" value="" style="sketch=0;pointerEvents=1;shadow=0;dashed=0;html=1;strokeColor=#432D57;labelPosition=center;verticalLabelPosition=bottom;verticalAlign=top;align=center;fillColor=#76608a;shape=mxgraph.mscae.intune.user_management;hachureGap=4;jiggle=2;curveFitting=1;fontFamily=Architects Daughter;fontSource=https%3A%2F%2Ffonts.googleapis.com%2Fcss%3Ffamily%3DArchitects%2BDaughter;fontColor=#ffffff;" vertex="1" parent="1">
          <mxGeometry x="110" y="940" width="70" height="56" as="geometry" />
        </mxCell>
        <mxCell id="IEyIXOlOGissW53sb8n7-47" value="" style="sketch=0;pointerEvents=1;shadow=0;dashed=0;html=1;strokeColor=none;fillColor=#005F4B;labelPosition=center;verticalLabelPosition=bottom;verticalAlign=top;align=center;outlineConnect=0;shape=mxgraph.veeam2.vpn;hachureGap=4;jiggle=2;curveFitting=1;fontFamily=Architects Daughter;fontSource=https%3A%2F%2Ffonts.googleapis.com%2Fcss%3Ffamily%3DArchitects%2BDaughter;" vertex="1" parent="1">
          <mxGeometry x="250" y="940" width="60" height="56" as="geometry" />
        </mxCell>
        <mxCell id="IEyIXOlOGissW53sb8n7-48" value="" style="image;aspect=fixed;perimeter=ellipsePerimeter;html=1;align=center;shadow=0;dashed=0;spacingTop=3;image=img/lib/active_directory/sql_server.svg;sketch=1;hachureGap=4;jiggle=2;curveFitting=1;fontFamily=Architects Daughter;fontSource=https%3A%2F%2Ffonts.googleapis.com%2Fcss%3Ffamily%3DArchitects%2BDaughter;" vertex="1" parent="1">
          <mxGeometry x="399" y="933" width="53.9" height="70" as="geometry" />
        </mxCell>
        <mxCell id="IEyIXOlOGissW53sb8n7-49" value="" style="html=1;strokeWidth=2;outlineConnect=0;dashed=0;align=center;fontSize=8;verticalLabelPosition=bottom;verticalAlign=top;shape=mxgraph.eip.control_bus;fillColor=#c0f5a9;hachureGap=4;fontFamily=Architects Daughter;fontSource=https%3A%2F%2Ffonts.googleapis.com%2Fcss%3Ffamily%3DArchitects%2BDaughter;" vertex="1" parent="1">
          <mxGeometry x="530" y="943" width="70" height="50" as="geometry" />
        </mxCell>
        <mxCell id="IEyIXOlOGissW53sb8n7-50" value="" style="image;aspect=fixed;perimeter=ellipsePerimeter;html=1;align=center;shadow=0;dashed=0;spacingTop=3;image=img/lib/active_directory/cluster_server.svg;sketch=1;hachureGap=4;jiggle=2;curveFitting=1;fontFamily=Architects Daughter;fontSource=https%3A%2F%2Ffonts.googleapis.com%2Fcss%3Ffamily%3DArchitects%2BDaughter;" vertex="1" parent="1">
          <mxGeometry x="660" y="937.5" width="61" height="61" as="geometry" />
        </mxCell>
        <mxCell id="IEyIXOlOGissW53sb8n7-54" value="" style="endArrow=classic;html=1;rounded=0;hachureGap=4;fontFamily=Architects Daughter;fontSource=https%3A%2F%2Ffonts.googleapis.com%2Fcss%3Ffamily%3DArchitects%2BDaughter;entryX=0;entryY=0.5;entryDx=0;entryDy=0;flowAnimation=1;" edge="1" parent="1" source="IEyIXOlOGissW53sb8n7-47" target="IEyIXOlOGissW53sb8n7-48">
          <mxGeometry width="50" height="50" relative="1" as="geometry">
            <mxPoint x="340" y="960" as="sourcePoint" />
            <mxPoint x="390" y="910" as="targetPoint" />
          </mxGeometry>
        </mxCell>
        <mxCell id="IEyIXOlOGissW53sb8n7-55" value="" style="endArrow=classic;html=1;rounded=0;hachureGap=4;fontFamily=Architects Daughter;fontSource=https%3A%2F%2Ffonts.googleapis.com%2Fcss%3Ffamily%3DArchitects%2BDaughter;entryX=0;entryY=0.5;entryDx=0;entryDy=0;flowAnimation=1;" edge="1" parent="1">
          <mxGeometry width="50" height="50" relative="1" as="geometry">
            <mxPoint x="440" y="967.5" as="sourcePoint" />
            <mxPoint x="529" y="967.5" as="targetPoint" />
          </mxGeometry>
        </mxCell>
        <mxCell id="IEyIXOlOGissW53sb8n7-56" value="" style="endArrow=classic;html=1;rounded=0;hachureGap=4;fontFamily=Architects Daughter;fontSource=https%3A%2F%2Ffonts.googleapis.com%2Fcss%3Ffamily%3DArchitects%2BDaughter;entryX=0;entryY=0.5;entryDx=0;entryDy=0;flowAnimation=1;" edge="1" parent="1">
          <mxGeometry width="50" height="50" relative="1" as="geometry">
            <mxPoint x="604.5" y="967.5" as="sourcePoint" />
            <mxPoint x="659.5" y="967.5" as="targetPoint" />
          </mxGeometry>
        </mxCell>
        <mxCell id="IEyIXOlOGissW53sb8n7-57" value="" style="endArrow=classic;html=1;rounded=0;hachureGap=4;fontFamily=Architects Daughter;fontSource=https%3A%2F%2Ffonts.googleapis.com%2Fcss%3Ffamily%3DArchitects%2BDaughter;entryX=0.571;entryY=1.033;entryDx=0;entryDy=0;flowAnimation=1;entryPerimeter=0;exitX=0.353;exitY=-0.071;exitDx=0;exitDy=0;exitPerimeter=0;" edge="1" parent="1" source="IEyIXOlOGissW53sb8n7-48" target="IEyIXOlOGissW53sb8n7-64">
          <mxGeometry width="50" height="50" relative="1" as="geometry">
            <mxPoint x="320" y="1010" as="sourcePoint" />
            <mxPoint x="409" y="1010" as="targetPoint" />
          </mxGeometry>
        </mxCell>
        <mxCell id="IEyIXOlOGissW53sb8n7-59" value="" style="rounded=1;whiteSpace=wrap;html=1;hachureGap=4;fontFamily=Architects Daughter;fontSource=https%3A%2F%2Ffonts.googleapis.com%2Fcss%3Ffamily%3DArchitects%2BDaughter;dashed=1;fillColor=#d5e8d4;strokeColor=#82b366;" vertex="1" parent="1">
          <mxGeometry x="387.95" y="660" width="202.05" height="160" as="geometry" />
        </mxCell>
        <mxCell id="IEyIXOlOGissW53sb8n7-61" value="" style="rounded=1;whiteSpace=wrap;html=1;hachureGap=4;fontFamily=Architects Daughter;fontSource=https%3A%2F%2Ffonts.googleapis.com%2Fcss%3Ffamily%3DArchitects%2BDaughter;dashed=1;" vertex="1" parent="1">
          <mxGeometry x="627.51" y="720" width="100" height="90" as="geometry" />
        </mxCell>
        <mxCell id="IEyIXOlOGissW53sb8n7-62" value="&lt;font face=&quot;Helvetica&quot;&gt;运维人员&lt;/font&gt;" style="text;html=1;align=center;verticalAlign=middle;resizable=0;points=[];autosize=1;strokeColor=none;fillColor=none;fontFamily=Architects Daughter;fontSource=https%3A%2F%2Ffonts.googleapis.com%2Fcss%3Ffamily%3DArchitects%2BDaughter;" vertex="1" parent="1">
          <mxGeometry x="110" y="998.5" width="70" height="30" as="geometry" />
        </mxCell>
        <mxCell id="IEyIXOlOGissW53sb8n7-63" value="&lt;font face=&quot;Helvetica&quot;&gt;VPN&lt;/font&gt;" style="text;html=1;align=center;verticalAlign=middle;resizable=0;points=[];autosize=1;strokeColor=none;fillColor=none;fontFamily=Architects Daughter;fontSource=https%3A%2F%2Ffonts.googleapis.com%2Fcss%3Ffamily%3DArchitects%2BDaughter;" vertex="1" parent="1">
          <mxGeometry x="250" y="998.5" width="50" height="30" as="geometry" />
        </mxCell>
        <mxCell id="IEyIXOlOGissW53sb8n7-64" value="&lt;font face=&quot;Helvetica&quot;&gt;ssh_key&lt;/font&gt;" style="text;html=1;align=center;verticalAlign=middle;resizable=0;points=[];autosize=1;strokeColor=none;fillColor=none;fontFamily=Architects Daughter;fontSource=https%3A%2F%2Ffonts.googleapis.com%2Fcss%3Ffamily%3DArchitects%2BDaughter;" vertex="1" parent="1">
          <mxGeometry x="379" y="870" width="70" height="30" as="geometry" />
        </mxCell>
        <mxCell id="IEyIXOlOGissW53sb8n7-65" value="&lt;font face=&quot;Helvetica&quot;&gt;监控：Zabbix&lt;/font&gt;" style="text;html=1;align=center;verticalAlign=middle;resizable=0;points=[];autosize=1;strokeColor=none;fillColor=none;fontFamily=Architects Daughter;fontSource=https%3A%2F%2Ffonts.googleapis.com%2Fcss%3Ffamily%3DArchitects%2BDaughter;" vertex="1" parent="1">
          <mxGeometry x="515" y="870" width="100" height="30" as="geometry" />
        </mxCell>
        <mxCell id="IEyIXOlOGissW53sb8n7-67" value="" style="endArrow=classic;html=1;rounded=0;hachureGap=4;fontFamily=Architects Daughter;fontSource=https%3A%2F%2Ffonts.googleapis.com%2Fcss%3Ffamily%3DArchitects%2BDaughter;entryX=0.49;entryY=1;entryDx=0;entryDy=0;flowAnimation=1;entryPerimeter=0;exitX=0.5;exitY=0;exitDx=0;exitDy=0;exitPerimeter=0;" edge="1" parent="1" source="IEyIXOlOGissW53sb8n7-49" target="IEyIXOlOGissW53sb8n7-65">
          <mxGeometry width="50" height="50" relative="1" as="geometry">
            <mxPoint x="455.5" y="932" as="sourcePoint" />
            <mxPoint x="544.5" y="932" as="targetPoint" />
          </mxGeometry>
        </mxCell>
        <mxCell id="IEyIXOlOGissW53sb8n7-68" value="&lt;font face=&quot;Helvetica&quot;&gt;跳板机&lt;/font&gt;" style="text;html=1;align=center;verticalAlign=middle;resizable=0;points=[];autosize=1;strokeColor=none;fillColor=none;fontFamily=Architects Daughter;fontSource=https%3A%2F%2Ffonts.googleapis.com%2Fcss%3Ffamily%3DArchitects%2BDaughter;" vertex="1" parent="1">
          <mxGeometry x="394" y="998.5" width="60" height="30" as="geometry" />
        </mxCell>
        <mxCell id="IEyIXOlOGissW53sb8n7-69" value="&lt;font face=&quot;Helvetica&quot;&gt;监控&lt;/font&gt;" style="text;html=1;align=center;verticalAlign=middle;resizable=0;points=[];autosize=1;strokeColor=none;fillColor=none;fontFamily=Architects Daughter;fontSource=https%3A%2F%2Ffonts.googleapis.com%2Fcss%3Ffamily%3DArchitects%2BDaughter;" vertex="1" parent="1">
          <mxGeometry x="535" y="998.5" width="50" height="30" as="geometry" />
        </mxCell>
        <mxCell id="IEyIXOlOGissW53sb8n7-70" value="&lt;font face=&quot;Helvetica&quot;&gt;备份服务器&lt;/font&gt;" style="text;html=1;align=center;verticalAlign=middle;resizable=0;points=[];autosize=1;strokeColor=none;fillColor=none;fontFamily=Architects Daughter;fontSource=https%3A%2F%2Ffonts.googleapis.com%2Fcss%3Ffamily%3DArchitects%2BDaughter;" vertex="1" parent="1">
          <mxGeometry x="650.5" y="1003" width="80" height="30" as="geometry" />
        </mxCell>
        <mxCell id="IEyIXOlOGissW53sb8n7-71" value="" style="outlineConnect=0;dashed=0;verticalLabelPosition=bottom;verticalAlign=top;align=center;html=1;shape=mxgraph.aws3.mysql_db_instance;fillColor=#2E73B8;gradientColor=none;hachureGap=4;fontFamily=Architects Daughter;fontSource=https%3A%2F%2Ffonts.googleapis.com%2Fcss%3Ffamily%3DArchitects%2BDaughter;" vertex="1" parent="1">
          <mxGeometry x="180" y="716.19" width="70" height="72.25" as="geometry" />
        </mxCell>
        <mxCell id="IEyIXOlOGissW53sb8n7-72" value="" style="outlineConnect=0;dashed=0;verticalLabelPosition=bottom;verticalAlign=top;align=center;html=1;shape=mxgraph.aws3.mysql_db_instance;fillColor=#2E73B8;gradientColor=none;hachureGap=4;fontFamily=Architects Daughter;fontSource=https%3A%2F%2Ffonts.googleapis.com%2Fcss%3Ffamily%3DArchitects%2BDaughter;" vertex="1" parent="1">
          <mxGeometry x="281.38" y="716.19" width="68.62" height="72.25" as="geometry" />
        </mxCell>
        <mxCell id="IEyIXOlOGissW53sb8n7-73" value="&lt;font face=&quot;Helvetica&quot;&gt;MySQL&lt;/font&gt;" style="text;html=1;align=center;verticalAlign=middle;resizable=0;points=[];autosize=1;strokeColor=none;fillColor=none;fontFamily=Architects Daughter;fontSource=https%3A%2F%2Ffonts.googleapis.com%2Fcss%3Ffamily%3DArchitects%2BDaughter;" vertex="1" parent="1">
          <mxGeometry x="180" y="670" width="60" height="30" as="geometry" />
        </mxCell>
        <mxCell id="IEyIXOlOGissW53sb8n7-74" value="" style="image;sketch=0;aspect=fixed;html=1;points=[];align=center;fontSize=12;image=img/lib/mscae/Cache_Redis_Product.svg;hachureGap=4;jiggle=2;curveFitting=1;fontFamily=Architects Daughter;fontSource=https%3A%2F%2Ffonts.googleapis.com%2Fcss%3Ffamily%3DArchitects%2BDaughter;" vertex="1" parent="1">
          <mxGeometry x="410" y="723.98" width="71.27" height="59.87" as="geometry" />
        </mxCell>
        <mxCell id="IEyIXOlOGissW53sb8n7-75" value="" style="outlineConnect=0;dashed=0;verticalLabelPosition=bottom;verticalAlign=top;align=center;html=1;shape=mxgraph.aws3.memcached;fillColor=#2E73B8;gradientColor=none;hachureGap=4;fontFamily=Architects Daughter;fontSource=https%3A%2F%2Ffonts.googleapis.com%2Fcss%3Ffamily%3DArchitects%2BDaughter;" vertex="1" parent="1">
          <mxGeometry x="510" y="720.7900000000001" width="70" height="63.06" as="geometry" />
        </mxCell>
        <mxCell id="IEyIXOlOGissW53sb8n7-76" value="&lt;font style=&quot;font-size: 15px;&quot; face=&quot;Helvetica&quot;&gt;redis/memcached&lt;/font&gt;" style="text;html=1;align=center;verticalAlign=middle;resizable=0;points=[];autosize=1;strokeColor=none;fillColor=none;fontFamily=Architects Daughter;fontSource=https%3A%2F%2Ffonts.googleapis.com%2Fcss%3Ffamily%3DArchitects%2BDaughter;" vertex="1" parent="1">
          <mxGeometry x="400" y="670" width="140" height="30" as="geometry" />
        </mxCell>
        <mxCell id="IEyIXOlOGissW53sb8n7-81" value="" style="sketch=0;aspect=fixed;pointerEvents=1;shadow=0;dashed=0;html=1;strokeColor=none;labelPosition=center;verticalLabelPosition=bottom;verticalAlign=top;align=center;fillColor=#00188D;shape=mxgraph.azure.server_rack;hachureGap=4;jiggle=2;curveFitting=1;fontFamily=Architects Daughter;fontSource=https%3A%2F%2Ffonts.googleapis.com%2Fcss%3Ffamily%3DArchitects%2BDaughter;" vertex="1" parent="1">
          <mxGeometry x="651.73" y="728.1300000000001" width="51.56" height="51.56" as="geometry" />
        </mxCell>
        <mxCell id="IEyIXOlOGissW53sb8n7-82" value="&lt;font face=&quot;Helvetica&quot;&gt;存储服务器&lt;/font&gt;" style="text;html=1;align=center;verticalAlign=middle;resizable=0;points=[];autosize=1;strokeColor=none;fillColor=none;fontFamily=Architects Daughter;fontSource=https%3A%2F%2Ffonts.googleapis.com%2Fcss%3Ffamily%3DArchitects%2BDaughter;" vertex="1" parent="1">
          <mxGeometry x="637.51" y="783.85" width="80" height="30" as="geometry" />
        </mxCell>
        <mxCell id="IEyIXOlOGissW53sb8n7-84" value="" style="endArrow=classic;html=1;rounded=0;hachureGap=4;fontFamily=Architects Daughter;fontSource=https%3A%2F%2Ffonts.googleapis.com%2Fcss%3Ffamily%3DArchitects%2BDaughter;exitX=0.233;exitY=0.867;exitDx=0;exitDy=0;exitPerimeter=0;entryX=0.162;entryY=0.008;entryDx=0;entryDy=0;entryPerimeter=0;flowAnimation=1;edgeStyle=orthogonalEdgeStyle;curved=1;" edge="1" parent="1" source="IEyIXOlOGissW53sb8n7-18" target="IEyIXOlOGissW53sb8n7-19">
          <mxGeometry width="50" height="50" relative="1" as="geometry">
            <mxPoint x="-100" y="680" as="sourcePoint" />
            <mxPoint x="-50" y="630" as="targetPoint" />
          </mxGeometry>
        </mxCell>
        <mxCell id="IEyIXOlOGissW53sb8n7-85" value="" style="endArrow=classic;html=1;rounded=0;hachureGap=4;fontFamily=Architects Daughter;fontSource=https%3A%2F%2Ffonts.googleapis.com%2Fcss%3Ffamily%3DArchitects%2BDaughter;exitX=0.567;exitY=1.033;exitDx=0;exitDy=0;exitPerimeter=0;entryX=0.162;entryY=0.008;entryDx=0;entryDy=0;entryPerimeter=0;flowAnimation=1;edgeStyle=orthogonalEdgeStyle;curved=1;" edge="1" parent="1" source="IEyIXOlOGissW53sb8n7-18">
          <mxGeometry width="50" height="50" relative="1" as="geometry">
            <mxPoint x="681" y="215" as="sourcePoint" />
            <mxPoint x="585" y="270" as="targetPoint" />
          </mxGeometry>
        </mxCell>
        <mxCell id="IEyIXOlOGissW53sb8n7-86" value="" style="endArrow=classic;html=1;rounded=0;hachureGap=4;fontFamily=Architects Daughter;fontSource=https%3A%2F%2Ffonts.googleapis.com%2Fcss%3Ffamily%3DArchitects%2BDaughter;exitX=0.364;exitY=1;exitDx=0;exitDy=0;exitPerimeter=0;entryX=0.195;entryY=-0.008;entryDx=0;entryDy=0;entryPerimeter=0;flowAnimation=1;edgeStyle=orthogonalEdgeStyle;curved=1;" edge="1" parent="1" source="IEyIXOlOGissW53sb8n7-19" target="IEyIXOlOGissW53sb8n7-30">
          <mxGeometry width="50" height="50" relative="1" as="geometry">
            <mxPoint x="306" y="420" as="sourcePoint" />
            <mxPoint x="210" y="475" as="targetPoint" />
          </mxGeometry>
        </mxCell>
        <mxCell id="IEyIXOlOGissW53sb8n7-87" value="" style="endArrow=classic;html=1;rounded=0;hachureGap=4;fontFamily=Architects Daughter;fontSource=https%3A%2F%2Ffonts.googleapis.com%2Fcss%3Ffamily%3DArchitects%2BDaughter;exitX=0.5;exitY=1;exitDx=0;exitDy=0;entryX=0.528;entryY=-0.023;entryDx=0;entryDy=0;entryPerimeter=0;flowAnimation=1;edgeStyle=orthogonalEdgeStyle;curved=1;" edge="1" parent="1" source="IEyIXOlOGissW53sb8n7-19" target="IEyIXOlOGissW53sb8n7-30">
          <mxGeometry width="50" height="50" relative="1" as="geometry">
            <mxPoint x="925" y="406" as="sourcePoint" />
            <mxPoint x="810" y="475" as="targetPoint" />
          </mxGeometry>
        </mxCell>
        <mxCell id="IEyIXOlOGissW53sb8n7-88" value="" style="endArrow=classic;html=1;rounded=0;hachureGap=4;fontFamily=Architects Daughter;fontSource=https%3A%2F%2Ffonts.googleapis.com%2Fcss%3Ffamily%3DArchitects%2BDaughter;exitX=0.618;exitY=1;exitDx=0;exitDy=0;exitPerimeter=0;entryX=0.809;entryY=-0.008;entryDx=0;entryDy=0;entryPerimeter=0;flowAnimation=1;edgeStyle=orthogonalEdgeStyle;curved=1;" edge="1" parent="1" source="IEyIXOlOGissW53sb8n7-19" target="IEyIXOlOGissW53sb8n7-30">
          <mxGeometry width="50" height="50" relative="1" as="geometry">
            <mxPoint x="935" y="406" as="sourcePoint" />
            <mxPoint x="820" y="475" as="targetPoint" />
          </mxGeometry>
        </mxCell>
        <mxCell id="IEyIXOlOGissW53sb8n7-90" value="" style="endArrow=classic;html=1;rounded=0;hachureGap=4;fontFamily=Architects Daughter;fontSource=https%3A%2F%2Ffonts.googleapis.com%2Fcss%3Ffamily%3DArchitects%2BDaughter;exitX=0.195;exitY=1;exitDx=0;exitDy=0;exitPerimeter=0;entryX=0.5;entryY=0;entryDx=0;entryDy=0;flowAnimation=1;" edge="1" parent="1" source="IEyIXOlOGissW53sb8n7-30" target="IEyIXOlOGissW53sb8n7-42">
          <mxGeometry width="50" height="50" relative="1" as="geometry">
            <mxPoint x="-160" y="730" as="sourcePoint" />
            <mxPoint x="-110" y="680" as="targetPoint" />
          </mxGeometry>
        </mxCell>
        <mxCell id="IEyIXOlOGissW53sb8n7-91" value="" style="endArrow=classic;html=1;rounded=0;hachureGap=4;fontFamily=Architects Daughter;fontSource=https%3A%2F%2Ffonts.googleapis.com%2Fcss%3Ffamily%3DArchitects%2BDaughter;exitX=0.449;exitY=0.985;exitDx=0;exitDy=0;exitPerimeter=0;entryX=0.5;entryY=0;entryDx=0;entryDy=0;flowAnimation=1;" edge="1" parent="1" source="IEyIXOlOGissW53sb8n7-30" target="IEyIXOlOGissW53sb8n7-59">
          <mxGeometry width="50" height="50" relative="1" as="geometry">
            <mxPoint x="909" y="605" as="sourcePoint" />
            <mxPoint x="840" y="665" as="targetPoint" />
          </mxGeometry>
        </mxCell>
        <mxCell id="IEyIXOlOGissW53sb8n7-92" value="" style="endArrow=classic;html=1;rounded=0;hachureGap=4;fontFamily=Architects Daughter;fontSource=https%3A%2F%2Ffonts.googleapis.com%2Fcss%3Ffamily%3DArchitects%2BDaughter;exitX=0.823;exitY=0.992;exitDx=0;exitDy=0;exitPerimeter=0;entryX=0.5;entryY=0;entryDx=0;entryDy=0;flowAnimation=1;" edge="1" parent="1" source="IEyIXOlOGissW53sb8n7-30" target="IEyIXOlOGissW53sb8n7-61">
          <mxGeometry width="50" height="50" relative="1" as="geometry">
            <mxPoint x="860" y="620" as="sourcePoint" />
            <mxPoint x="893" y="682" as="targetPoint" />
          </mxGeometry>
        </mxCell>
        <mxCell id="IEyIXOlOGissW53sb8n7-93" value="&lt;font face=&quot;Helvetica&quot;&gt;LNMP/LMT&lt;/font&gt;" style="text;html=1;align=center;verticalAlign=middle;resizable=0;points=[];autosize=1;strokeColor=none;fillColor=none;fontFamily=Architects Daughter;fontSource=https%3A%2F%2Ffonts.googleapis.com%2Fcss%3Ffamily%3DArchitects%2BDaughter;" vertex="1" parent="1">
          <mxGeometry x="195" y="620" width="80" height="30" as="geometry" />
        </mxCell>
        <mxCell id="IEyIXOlOGissW53sb8n7-94" value="JavaPub技术团队" style="text;html=1;align=center;verticalAlign=middle;resizable=0;points=[];autosize=1;strokeColor=none;fillColor=none;fontFamily=Architects Daughter;fontSource=https%3A%2F%2Ffonts.googleapis.com%2Fcss%3Ffamily%3DArchitects%2BDaughter;" vertex="1" parent="1">
          <mxGeometry x="110" y="835" width="120" height="30" as="geometry" />
        </mxCell>
        <mxCell id="IEyIXOlOGissW53sb8n7-95" value="&lt;span style=&quot;font-family: Helvetica; font-size: 15px;&quot;&gt;memcached&lt;/span&gt;" style="text;html=1;align=center;verticalAlign=middle;resizable=0;points=[];autosize=1;strokeColor=none;fillColor=none;fontFamily=Architects Daughter;fontSource=https%3A%2F%2Ffonts.googleapis.com%2Fcss%3Ffamily%3DArchitects%2BDaughter;" vertex="1" parent="1">
          <mxGeometry x="490" y="779.69" width="110" height="30" as="geometry" />
        </mxCell>
        <mxCell id="IEyIXOlOGissW53sb8n7-96" value="&lt;font face=&quot;Helvetica&quot;&gt;redis&lt;/font&gt;" style="text;html=1;align=center;verticalAlign=middle;resizable=0;points=[];autosize=1;strokeColor=none;fillColor=none;fontFamily=Architects Daughter;fontSource=https%3A%2F%2Ffonts.googleapis.com%2Fcss%3Ffamily%3DArchitects%2BDaughter;" vertex="1" parent="1">
          <mxGeometry x="420.64" y="780" width="50" height="30" as="geometry" />
        </mxCell>
      </root>
    </mxGraphModel>
  </diagram>
</mxfile>
